<svg width="32" height="32" viewBox="0 0 32 32" fill="none" xmlns="http://www.w3.org/2000/svg">
<path d="M16 8.66663C16.8841 8.66663 17.7319 9.01782 18.357 9.64294C18.9822 10.2681 19.3334 11.1159 19.3334 12C19.3334 12.4377 19.2471 12.8712 19.0796 13.2756C18.9121 13.68 18.6666 14.0475 18.357 14.357C18.0475 14.6665 17.68 14.912 17.2756 15.0796C16.8712 15.2471 16.4378 15.3333 16 15.3333C15.116 15.3333 14.2681 14.9821 13.643 14.357C13.0179 13.7319 12.6667 12.884 12.6667 12C12.6667 11.1159 13.0179 10.2681 13.643 9.64294C14.2681 9.01782 15.116 8.66663 16 8.66663ZM16 2.66663C18.4754 2.66663 20.8493 3.64996 22.5997 5.4003C24.35 7.15064 25.3334 9.5246 25.3334 12C25.3334 19 16 29.3333 16 29.3333C16 29.3333 6.66669 19 6.66669 12C6.66669 9.5246 7.65002 7.15064 9.40036 5.4003C11.1507 3.64996 13.5247 2.66663 16 2.66663ZM16 5.33329C14.2319 5.33329 12.5362 6.03567 11.286 7.28591C10.0357 8.53616 9.33335 10.2318 9.33335 12C9.33335 13.3333 9.33335 16 16 24.9466C22.6667 16 22.6667 13.3333 22.6667 12C22.6667 10.2318 21.9643 8.53616 20.7141 7.28591C19.4638 6.03567 17.7681 5.33329 16 5.33329Z" fill="#94A3B8"/>
</svg>
