<svg width="128" height="129" viewBox="0 0 128 129" fill="none" xmlns="http://www.w3.org/2000/svg">
<g clip-path="url(#clip0_31_909)">
<path d="M64.004 25.9354C46.937 25.9354 36.274 34.4654 32.004 51.5324C38.402 43.0014 45.871 39.8024 54.402 41.9354C59.273 43.1494 62.754 46.6814 66.609 50.5954C72.883 56.9624 80.145 64.3334 96.004 64.3334C113.07 64.3334 123.734 55.8024 128.004 38.7314C121.605 47.2674 114.137 50.4664 105.605 48.3334C100.735 47.1184 97.258 43.5874 93.398 39.6734C87.128 33.3064 79.868 25.9354 64.004 25.9354ZM32.004 64.3334C14.938 64.3334 4.27403 72.8644 0.00402832 89.9354C6.40203 81.3994 13.87 78.2004 22.402 80.3334C27.273 81.5484 30.754 85.0794 34.609 88.9934C40.883 95.3604 48.145 102.731 64.004 102.731C81.07 102.731 91.734 94.2014 96.004 77.1344C89.605 85.6654 82.137 88.8644 73.605 86.7314C68.735 85.5174 65.258 81.9854 61.398 78.0714C55.128 71.7044 47.868 64.3334 32.004 64.3334Z" fill="#38BDF8"/>
</g>
<defs>
<clipPath id="clip0_31_909">
<rect width="128" height="128" fill="white" transform="translate(0 0.333374)"/>
</clipPath>
</defs>
</svg>
