<svg width="128" height="129" viewBox="0 0 128 129" fill="none" xmlns="http://www.w3.org/2000/svg">
<g clip-path="url(#clip0_31_921)">
<mask id="mask0_31_921" style="mask-type:alpha" maskUnits="userSpaceOnUse" x="-1" y="0" width="129" height="129">
<path fill-rule="evenodd" clip-rule="evenodd" d="M90.7671 127.459C91.7857 127.857 92.8751 128.04 93.9675 127.998C95.0599 127.956 96.132 127.69 97.1171 127.215L123.47 114.534C124.827 113.881 125.972 112.858 126.774 111.583C127.575 110.307 128 108.832 128 107.325V21.3424C128 19.836 127.575 18.3602 126.774 17.0846C125.973 15.8091 124.827 14.7858 123.47 14.1324L97.1171 1.45339C95.628 0.7369 93.953 0.500996 92.3239 0.778332C90.6948 1.05567 89.1923 1.83253 88.0241 3.00139L37.5741 49.0274L15.6001 32.3464C14.6089 31.5938 13.3854 31.2119 12.142 31.2671C10.8987 31.3222 9.71382 31.8109 8.79311 32.6484L1.74511 39.0594C1.19586 39.559 0.756928 40.1676 0.456388 40.8466C0.155849 41.5255 0.000322148 42.2596 -0.000242597 43.0021C-0.000807342 43.7445 0.153602 44.4789 0.453109 45.1583C0.752615 45.8376 1.19062 46.447 1.73911 46.9474L20.7961 64.3334L1.74011 81.7204C1.19192 82.2209 0.754176 82.8302 0.454856 83.5095C0.155535 84.1887 0.00122612 84.9229 0.00179081 85.6652C0.0023555 86.4075 0.157782 87.1415 0.458135 87.8203C0.758489 88.4991 1.19716 89.1078 1.74611 89.6074L8.79411 96.0184C9.71461 96.8562 10.8994 97.3452 12.1428 97.4005C13.3863 97.4559 14.6098 97.0741 15.6011 96.3214L37.5751 79.6414L88.0251 125.666C88.8052 126.448 89.7383 127.058 90.7671 127.459ZM96.0191 35.2764L57.7401 64.3334L96.0201 93.3914L96.0191 35.2764Z" fill="white"/>
</mask>
<g mask="url(#mask0_31_921)">
<path d="M123.471 14.1534L97.0969 1.4534C95.6072 0.736427 93.9315 0.500268 92.3017 0.777606C90.6719 1.05494 89.1686 1.83206 87.9999 3.0014L1.6619 81.7204C1.1133 82.2206 0.67518 82.8299 0.375595 83.5092C0.0760096 84.1885 -0.0784441 84.9228 -0.0778793 85.6652C-0.0773145 86.4076 0.0782563 87.1418 0.378875 87.8206C0.679493 88.4994 1.11854 89.108 1.6679 89.6074L8.7199 96.0184C9.64122 96.8561 10.8266 97.3451 12.0707 97.4004C13.3147 97.4557 14.5388 97.074 15.5309 96.3214L119.502 17.4464C122.99 14.8004 128 17.2884 128 21.6664V21.3604C128 19.8545 127.575 18.3792 126.774 17.1041C125.972 15.829 124.828 14.8069 123.471 14.1534Z" fill="#0065A9"/>
<g filter="url(#filter0_d_31_921)">
<path d="M123.471 114.514L97.0969 127.212C95.6074 127.93 93.9318 128.166 92.302 127.889C90.6722 127.612 89.1688 126.835 87.9999 125.666L1.6619 46.9464C1.1133 46.4462 0.67518 45.8369 0.375595 45.1576C0.0760096 44.4783 -0.0784441 43.744 -0.0778793 43.0016C-0.0773145 42.2591 0.0782563 41.525 0.378875 40.8462C0.679493 40.1674 1.11854 39.5588 1.6679 39.0594L8.7199 32.6484C9.64122 31.8106 10.8266 31.3217 12.0707 31.2664C13.3147 31.211 14.5388 31.5928 15.5309 32.3454L119.502 111.219C122.99 113.866 128 111.378 128 107V107.306C128 108.812 127.575 110.288 126.774 111.563C125.972 112.838 124.828 113.861 123.471 114.514Z" fill="#007ACC"/>
</g>
<g filter="url(#filter1_d_31_921)">
<path d="M97.098 127.215C95.608 127.932 93.9321 128.168 92.3022 127.89C90.6724 127.613 89.169 126.836 88 125.666C90.952 128.618 96 126.527 96 122.352V6.3134C96 2.1384 90.952 0.0474021 88 3.0004C89.169 1.8312 90.6724 1.05412 92.3022 0.776621C93.9321 0.499122 95.608 0.734919 97.098 1.4514L123.467 14.1334C124.825 14.7864 125.971 15.8095 126.773 17.0851C127.575 18.3606 128 19.8367 128 21.3434V107.325C128 108.832 127.575 110.308 126.773 111.584C125.971 112.859 124.825 113.882 123.467 114.535L97.098 127.215Z" fill="#1F9CF0"/>
</g>
<path opacity="0.25" fill-rule="evenodd" clip-rule="evenodd" d="M90.69 127.459C91.7084 127.856 92.7976 128.04 93.8899 127.998C94.9821 127.956 96.054 127.689 97.039 127.215L123.392 114.534C124.749 113.881 125.895 112.858 126.696 111.582C127.497 110.307 127.922 108.831 127.922 107.324V21.3424C127.922 19.836 127.497 18.3602 126.696 17.0846C125.895 15.8091 124.749 14.7858 123.392 14.1324L97.039 1.45339C95.5499 0.7369 93.8749 0.500996 92.2458 0.778332C90.6167 1.05567 89.1141 1.83253 87.946 3.00139L37.496 49.0274L15.522 32.3474C14.5307 31.5948 13.3073 31.2129 12.0639 31.2681C10.8205 31.3232 9.6357 31.8119 8.71499 32.6494L1.66699 39.0604C1.11788 39.56 0.679066 40.1688 0.378615 40.8477C0.0781639 41.5265 -0.0773146 42.2607 -0.0778793 43.0031C-0.078444 43.7455 0.0759175 44.4798 0.375335 45.1592C0.674753 45.8385 1.11264 46.4479 1.66099 46.9484L20.718 64.3334L1.66199 81.7194C1.1135 82.2198 0.675493 82.8292 0.375987 83.5085C0.0764807 84.1879 -0.0779289 84.9223 -0.0773641 85.6647C-0.0767994 86.4072 0.0787273 87.1413 0.379267 87.8202C0.679806 88.4991 1.11874 89.1078 1.66799 89.6074L8.71599 96.0184C9.63658 96.856 10.8213 97.3449 12.0647 97.4002C13.3081 97.4556 14.5316 97.0739 15.523 96.3214L37.498 79.6404L87.948 125.666C88.7278 126.448 89.6615 127.058 90.69 127.459ZM95.942 35.2754L57.662 64.3334L95.942 93.3904V35.2754Z" fill="url(#paint0_linear_31_921)"/>
</g>
</g>
<defs>
<filter id="filter0_d_31_921" x="-8.41188" y="22.9271" width="144.746" height="113.409" filterUnits="userSpaceOnUse" color-interpolation-filters="sRGB">
<feFlood flood-opacity="0" result="BackgroundImageFix"/>
<feColorMatrix in="SourceAlpha" type="matrix" values="0 0 0 0 0 0 0 0 0 0 0 0 0 0 0 0 0 0 127 0" result="hardAlpha"/>
<feOffset/>
<feGaussianBlur stdDeviation="4.167"/>
<feColorMatrix type="matrix" values="0 0 0 0 0 0 0 0 0 0 0 0 0 0 0 0 0 0 0.25 0"/>
<feBlend mode="overlay" in2="BackgroundImageFix" result="effect1_dropShadow_31_921"/>
<feBlend mode="normal" in="SourceGraphic" in2="effect1_dropShadow_31_921" result="shape"/>
</filter>
<filter id="filter1_d_31_921" x="79.666" y="-7.67055" width="56.668" height="144.008" filterUnits="userSpaceOnUse" color-interpolation-filters="sRGB">
<feFlood flood-opacity="0" result="BackgroundImageFix"/>
<feColorMatrix in="SourceAlpha" type="matrix" values="0 0 0 0 0 0 0 0 0 0 0 0 0 0 0 0 0 0 127 0" result="hardAlpha"/>
<feOffset/>
<feGaussianBlur stdDeviation="4.167"/>
<feColorMatrix type="matrix" values="0 0 0 0 0 0 0 0 0 0 0 0 0 0 0 0 0 0 0.25 0"/>
<feBlend mode="overlay" in2="BackgroundImageFix" result="effect1_dropShadow_31_921"/>
<feBlend mode="normal" in="SourceGraphic" in2="effect1_dropShadow_31_921" result="shape"/>
</filter>
<linearGradient id="paint0_linear_31_921" x1="63.922" y1="0.663394" x2="63.922" y2="128.003" gradientUnits="userSpaceOnUse">
<stop stop-color="white"/>
<stop offset="1" stop-color="white" stop-opacity="0"/>
</linearGradient>
<clipPath id="clip0_31_921">
<rect width="128" height="128" fill="white" transform="translate(0 0.333374)"/>
</clipPath>
</defs>
</svg>
