<svg width="32" height="32" viewBox="0 0 32 32" fill="none" xmlns="http://www.w3.org/2000/svg">
<path d="M9.33331 22.6667C8.59998 22.6667 7.97242 22.4058 7.45065 21.884C6.92887 21.3622 6.66754 20.7342 6.66665 20V6.66667C6.66665 5.93333 6.92798 5.30578 7.45065 4.784C7.97331 4.26222 8.60087 4.00089 9.33331 4H28C28.7333 4 29.3613 4.26133 29.884 4.784C30.4066 5.30667 30.6675 5.93422 30.6666 6.66667V20C30.6666 20.7333 30.4058 21.3613 29.884 21.884C29.3622 22.4067 28.7342 22.6676 28 22.6667H9.33331ZM18.6666 16.4L9.33331 9.9V20H28V9.9L18.6666 16.4ZM18.6666 13.1333L28 6.66667H9.33331L18.6666 13.1333ZM3.99998 28C3.26665 28 2.63909 27.7391 2.11731 27.2173C1.59554 26.6956 1.3342 26.0676 1.33331 25.3333V8.66667H3.99998V25.3333H26V28H3.99998Z" fill="#94A3B8"/>
</svg>
