<svg width="24" height="24" viewBox="0 0 24 24" fill="none" xmlns="http://www.w3.org/2000/svg">
<g clip-path="url(#clip0_167_753)">
<path d="M8.09989 15.9857C7.92939 15.9857 7.76588 15.9179 7.64532 15.7974C7.52476 15.6768 7.45703 15.5133 7.45703 15.3428C7.45703 15.1723 7.52476 15.0088 7.64532 14.8882C7.76588 14.7677 7.92939 14.7 8.09989 14.7H17.0999C17.2704 14.7 17.4339 14.7677 17.5545 14.8882C17.675 15.0088 17.7427 15.1723 17.7427 15.3428C17.7427 15.5133 17.675 15.6768 17.5545 15.7974C17.4339 15.9179 17.2704 15.9857 17.0999 15.9857H8.09989ZM8.09989 19.2C7.92939 19.2 7.76588 19.1322 7.64532 19.0117C7.52476 18.8911 7.45703 18.7276 7.45703 18.5571C7.45703 18.3866 7.52476 18.2231 7.64532 18.1025C7.76588 17.982 7.92939 17.9142 8.09989 17.9142H17.0999C17.2704 17.9142 17.4339 17.982 17.5545 18.1025C17.675 18.2231 17.7427 18.3866 17.7427 18.5571C17.7427 18.7276 17.675 18.8911 17.5545 19.0117C17.4339 19.1322 17.2704 19.2 17.0999 19.2H8.09989Z" fill="black"/>
<path fill-rule="evenodd" clip-rule="evenodd" d="M14.1232 1.19995H5.52818C5.01669 1.19995 4.52615 1.40314 4.16447 1.76482C3.8028 2.12649 3.59961 2.61703 3.59961 3.12852V22.4142C3.59961 22.9257 3.8028 23.4163 4.16447 23.7779C4.52615 24.1396 5.01669 24.3428 5.52818 24.3428H19.671C20.1825 24.3428 20.6731 24.1396 21.0347 23.7779C21.3964 23.4163 21.5996 22.9257 21.5996 22.4142V9.17395C21.5995 8.69113 21.4183 8.22592 21.0918 7.87024L15.5452 1.82481C15.3644 1.62777 15.1447 1.47047 14.8999 1.3629C14.6551 1.25533 14.3906 1.19984 14.1232 1.19995ZM4.88532 3.12852C4.88532 2.95803 4.95305 2.79451 5.07361 2.67395C5.19417 2.55339 5.35768 2.48567 5.52818 2.48567H14.1232C14.2124 2.48557 14.3006 2.50404 14.3823 2.53989C14.464 2.57575 14.5373 2.62822 14.5976 2.69395L20.1442 8.73938C20.2532 8.85787 20.3137 9.01295 20.3139 9.17395V22.4142C20.3139 22.5847 20.2462 22.7482 20.1256 22.8688C20.005 22.9894 19.8415 23.0571 19.671 23.0571H5.52818C5.35768 23.0571 5.19417 22.9894 5.07361 22.8688C4.95305 22.7482 4.88532 22.5847 4.88532 22.4142V3.12852Z" fill="black"/>
<path d="M14.5283 2.61426V8.65711H20.5712" stroke="black" stroke-linecap="round" stroke-linejoin="round"/>
<path d="M10.2 7.79947C10.3836 7.80509 10.5664 7.77378 10.7377 7.7074C10.909 7.64102 11.0652 7.54092 11.1971 7.41304C11.3289 7.28515 11.4338 7.13209 11.5053 6.96293C11.5769 6.79376 11.6138 6.61194 11.6138 6.42825C11.6138 6.24456 11.5769 6.06275 11.5053 5.89358C11.4338 5.72442 11.3289 5.57135 11.1971 5.44347C11.0652 5.31558 10.909 5.21548 10.7377 5.1491C10.5664 5.08272 10.3836 5.05142 10.2 5.05704C9.84358 5.06795 9.50543 5.2172 9.25719 5.47317C9.00895 5.72913 8.87012 6.07169 8.87012 6.42825C8.87012 6.78482 9.00895 7.12738 9.25719 7.38334C9.50543 7.6393 9.84358 7.78855 10.2 7.79947Z" fill="black"/>
<path fill-rule="evenodd" clip-rule="evenodd" d="M12.9419 10.7709C12.9419 9.3129 11.714 8.25732 10.1995 8.25732C8.68489 8.25732 7.45703 9.31161 7.45703 10.7709V11.4575C7.45737 11.5786 7.50575 11.6947 7.59155 11.7803C7.67735 11.8658 7.79357 11.9139 7.91475 11.9139H12.4855C12.6064 11.9136 12.7223 11.8654 12.8078 11.7798C12.8934 11.6943 12.9415 11.5784 12.9419 11.4575V10.7709Z" fill="black"/>
</g>
<defs>
<clipPath id="clip0_167_753">
<rect width="24" height="24" fill="white"/>
</clipPath>
</defs>
</svg>
