<svg width="144" height="129" viewBox="0 0 144 129" fill="none" xmlns="http://www.w3.org/2000/svg">
<g clip-path="url(#clip0_31_919)">
<path d="M118.306 41.7783C116.777 41.2536 115.234 40.7674 113.68 40.3204C113.941 39.2537 114.182 38.1999 114.395 37.1647C117.897 20.1649 115.608 6.46942 107.788 1.96022C100.29 -2.36258 88.0287 2.14493 75.6452 12.9222C74.4248 13.9862 73.2314 15.0809 72.0663 16.2053C71.2863 15.4576 70.4925 14.7245 69.6854 14.0063C56.7068 2.48289 43.698 -2.37381 35.8866 2.14829C28.3958 6.48457 26.1777 19.3592 29.3306 35.4704C29.6442 37.066 29.9984 38.6535 30.3927 40.2311C28.5513 40.7543 26.7745 41.3112 25.074 41.9041C9.85771 47.2093 0.140381 55.5232 0.140381 64.1469C0.140381 73.0536 10.5724 81.9872 26.4208 87.4042C27.7057 87.8415 29.0012 88.2468 30.3063 88.6196C29.8824 90.3188 29.5061 92.0295 29.1779 93.7497C26.1721 109.581 28.5193 122.152 35.9899 126.46C43.7059 130.91 56.6563 126.337 69.266 115.314C70.2885 114.418 71.2885 113.496 72.265 112.55C73.5268 113.767 74.8223 114.949 76.1499 116.095C88.3649 126.605 100.428 130.849 107.892 126.529C115.6 122.066 118.106 108.562 114.853 92.1329C114.597 90.8457 114.309 89.565 113.991 88.2917C114.901 88.0223 115.793 87.7449 116.664 87.4564C133.14 81.9978 143.86 73.1726 143.86 64.1469C143.86 55.4917 133.829 47.1218 118.306 41.7783ZM114.733 81.629C113.947 81.8889 113.141 82.1399 112.319 82.3841C110.5 76.6258 108.046 70.5031 105.041 64.1766C107.908 58.0012 110.268 51.9566 112.036 46.2359C113.506 46.6614 114.933 47.11 116.308 47.5832C129.608 52.162 137.72 58.9309 137.72 64.1469C137.72 69.7025 128.959 76.9149 114.733 81.629ZM108.83 93.3253C110.269 100.59 110.474 107.158 109.521 112.293C108.665 116.908 106.944 119.984 104.815 121.216C100.286 123.838 90.6004 120.43 80.1544 111.441C78.9195 110.376 77.7145 109.277 76.5407 108.145C80.5906 103.716 84.6378 98.5677 88.5878 92.8492C95.5358 92.2328 102.1 91.2245 108.052 89.8485C108.339 91.0011 108.598 92.1604 108.83 93.3253ZM49.1374 120.763C44.7125 122.325 41.188 122.37 39.0574 121.142C34.5241 118.527 32.6395 108.434 35.2101 94.895C35.5157 93.2951 35.8656 91.704 36.2594 90.1236C42.1463 91.4261 48.6625 92.3625 55.6267 92.9272C59.6037 98.5228 63.7676 103.666 67.9641 108.169C67.0723 109.032 66.1593 109.873 65.2261 110.691C59.6497 115.565 54.0621 119.024 49.1374 120.763ZM28.407 81.5947C21.399 79.1992 15.6115 76.0863 11.6447 72.6892C8.07975 69.6369 6.28045 66.6058 6.28045 64.1469C6.28045 58.9135 14.0823 52.2384 27.095 47.7017C28.6743 47.1515 30.327 46.6322 32.0421 46.1449C33.8409 51.9947 36.1999 58.1112 39.0468 64.2962C36.1628 70.5727 33.7701 76.7869 31.954 82.7058C30.7628 82.3645 29.5801 81.9941 28.407 81.5947ZM35.3561 34.2909C32.6552 20.4877 34.4489 10.0753 38.9631 7.46198C43.771 4.67854 54.4028 8.6471 65.609 18.5974C66.3397 19.2477 67.0587 19.9112 67.7654 20.5876C63.5896 25.0715 59.4639 30.1764 55.5223 35.7388C48.763 36.3653 42.2928 37.3713 36.3442 38.7192C35.9777 37.2518 35.6482 35.7749 35.3561 34.2909ZM97.3502 49.5998C95.9451 47.1728 94.488 44.7764 92.9797 42.4122C97.5652 42.9921 101.959 43.7618 106.085 44.7027C104.846 48.6729 103.302 52.8234 101.485 57.0788C100.157 54.5585 98.7781 52.065 97.3502 49.5998ZM72.0691 24.9761C74.9008 28.0442 77.737 31.4693 80.5266 35.1858C74.8677 34.9185 69.1993 34.9174 63.5402 35.1824C66.3327 31.5002 69.193 28.0795 72.0691 24.9761ZM46.6257 49.6413C45.2157 52.0867 43.8629 54.5647 42.5685 57.0732C40.7809 52.8329 39.2511 48.6634 38.002 44.637C42.1025 43.7197 46.4753 42.9696 51.0316 42.4004C49.5065 44.779 48.0375 47.1937 46.6257 49.6413ZM51.1624 86.3302C46.455 85.8047 42.0166 85.0934 37.9172 84.2008C39.186 80.1025 40.7495 75.8443 42.5757 71.5131C43.8753 74.0234 45.2337 76.5029 46.6499 78.9494C48.1061 81.4645 49.6141 83.928 51.1624 86.3302ZM72.2386 103.751C69.3283 100.611 66.4259 97.1378 63.5913 93.4022C66.3433 93.51 69.1487 93.565 72 93.565C74.9294 93.565 77.8252 93.4993 80.6754 93.3724C77.8768 97.1754 75.0513 100.654 72.2386 103.751ZM101.543 71.2919C103.464 75.6708 105.083 79.9066 106.369 83.9347C102.202 84.8857 97.7028 85.6515 92.9623 86.2202C94.4813 83.812 95.9523 81.3739 97.3743 78.9073C98.8202 76.4001 100.21 73.861 101.543 71.2919ZM92.0562 75.8398C89.8792 79.6216 87.5797 83.3317 85.1616 86.964C80.7813 87.2743 76.3913 87.4284 72 87.4261C67.5273 87.4261 63.177 87.2868 58.9878 87.0151C56.5065 83.3911 54.1633 79.6746 51.963 75.8735C49.7731 72.0925 47.7281 68.2297 45.8313 64.2934C47.7232 60.3562 49.7626 56.4916 51.945 52.7077C54.1266 48.9229 56.4506 45.2228 58.9132 41.6144C63.1871 41.291 67.57 41.1226 71.9995 41.1226C76.4492 41.1226 80.8382 41.2927 85.1111 41.6183C87.5487 45.2213 89.8584 48.9092 92.036 52.6752C94.2257 56.4507 96.292 60.2965 98.2316 64.2064C96.3119 68.1563 94.2521 72.0365 92.0562 75.8398ZM104.721 7.27896C109.534 10.0545 111.406 21.2472 108.382 35.9251C108.189 36.8616 107.972 37.8154 107.736 38.7827C101.773 37.4061 95.2983 36.3827 88.5193 35.7466C84.5704 30.123 80.4783 25.0103 76.3706 20.5842C77.4471 19.5465 78.5493 18.5356 79.6761 17.5526C90.2866 8.31924 100.203 4.67349 104.721 7.27896ZM72 51.3132C79.0877 51.3132 84.8337 57.0592 84.8337 64.1469C84.8337 71.2346 79.0877 76.9806 72 76.9806C64.9123 76.9806 59.1663 71.2346 59.1663 64.1469C59.1663 57.0592 64.9123 51.3132 72 51.3132Z" fill="#00D8FF"/>
</g>
<defs>
<clipPath id="clip0_31_919">
<rect width="143.719" height="128" fill="white" transform="translate(0.140381 0.333374)"/>
</clipPath>
</defs>
</svg>
