<svg width="86" height="129" viewBox="0 0 86 129" fill="none" xmlns="http://www.w3.org/2000/svg">
<g clip-path="url(#clip0_31_865)">
<path d="M21.6667 128.333C33.4427 128.333 43 118.776 43 107V85.6667H21.6667C9.89071 85.6667 0.333374 95.224 0.333374 107C0.333374 118.776 9.89071 128.333 21.6667 128.333Z" fill="#0ACF83"/>
<path d="M0.333374 64.3334C0.333374 52.5574 9.89071 43.0001 21.6667 43.0001H43V85.6667H21.6667C9.89071 85.6667 0.333374 76.1094 0.333374 64.3334Z" fill="#A259FF"/>
<path d="M0.333374 21.6667C0.333374 9.89071 9.89071 0.333374 21.6667 0.333374H43V43H21.6667C9.89071 43 0.333374 33.4427 0.333374 21.6667Z" fill="#F24E1E"/>
<path d="M43 0.333374H64.3333C76.1093 0.333374 85.6667 9.89071 85.6667 21.6667C85.6667 33.4427 76.1093 43 64.3333 43H43V0.333374Z" fill="#FF7262"/>
<path d="M85.6667 64.3334C85.6667 76.1094 76.1093 85.6667 64.3333 85.6667C52.5573 85.6667 43 76.1094 43 64.3334C43 52.5574 52.5573 43.0001 64.3333 43.0001C76.1093 43.0001 85.6667 52.5574 85.6667 64.3334Z" fill="#1ABCFE"/>
</g>
<defs>
<clipPath id="clip0_31_865">
<rect width="85.3333" height="128" fill="white" transform="translate(0.333374 0.333374)"/>
</clipPath>
</defs>
</svg>
