<svg width="128" height="129" viewBox="0 0 128 129" fill="none" xmlns="http://www.w3.org/2000/svg">
<path d="M64 11.0001C56.9961 11.0001 50.0609 12.3796 43.5902 15.0598C37.1195 17.7401 31.2401 21.6686 26.2876 26.621C16.2857 36.623 10.6666 50.1885 10.6666 64.3334C10.6666 87.9067 25.9733 107.907 47.1466 115C49.8133 115.427 50.6666 113.773 50.6666 112.333V103.32C35.8933 106.52 32.7466 96.1734 32.7466 96.1734C30.2933 89.9867 26.8266 88.3334 26.8266 88.3334C21.9733 85.0267 27.2 85.1334 27.2 85.1334C32.5333 85.5067 35.36 90.6267 35.36 90.6267C40 98.7334 47.84 96.3334 50.88 95.0534C51.36 91.5867 52.7466 89.2401 54.24 87.9067C42.4 86.5734 29.9733 81.9867 29.9733 61.6667C29.9733 55.7467 32 51.0001 35.4666 47.2134C34.9333 45.8801 33.0666 40.3334 36 33.1334C36 33.1334 40.48 31.6934 50.6666 38.5734C54.88 37.4001 59.4666 36.8134 64 36.8134C68.5333 36.8134 73.12 37.4001 77.3333 38.5734C87.52 31.6934 92 33.1334 92 33.1334C94.9333 40.3334 93.0666 45.8801 92.5333 47.2134C96 51.0001 98.0266 55.7467 98.0266 61.6667C98.0266 82.0401 85.5466 86.5201 73.6533 87.8534C75.5733 89.5067 77.3333 92.7601 77.3333 97.7201V112.333C77.3333 113.773 78.1866 115.48 80.9066 115C102.08 107.853 117.333 87.9067 117.333 64.3334C117.333 57.3296 115.954 50.3943 113.274 43.9236C110.593 37.4529 106.665 31.5735 101.712 26.621C96.7599 21.6686 90.8804 17.7401 84.4097 15.0598C77.939 12.3796 71.0038 11.0001 64 11.0001Z" fill="black"/>
</svg>
