<svg width="64" height="64" viewBox="0 0 64 64" fill="none" xmlns="http://www.w3.org/2000/svg">
<path d="M32 60C16.56 60 4 47.44 4 32C4 16.56 16.56 4 32 4C47.44 4 60 16.56 60 32C60 47.44 47.44 60 32 60ZM32 8C18.76 8 8 18.76 8 32C8 45.24 18.76 56 32 56C45.24 56 56 45.24 56 32C56 18.76 45.24 8 32 8Z" fill="black"/>
<path d="M43.3199 46C42.4799 46 41.7199 45.48 41.4399 44.68C40.7519 42.7257 39.4743 41.0332 37.7834 39.8359C36.0925 38.6386 34.0718 37.9956 31.9999 37.9956C29.9281 37.9956 27.9073 38.6386 26.2164 39.8359C24.5256 41.0332 23.248 42.7257 22.5599 44.68C22.1999 45.72 21.0399 46.28 19.9999 45.88C19.7508 45.7938 19.5216 45.6585 19.3257 45.4822C19.1297 45.3059 18.9712 45.0921 18.8593 44.8534C18.7474 44.6148 18.6845 44.3561 18.6743 44.0927C18.6641 43.8293 18.7068 43.5666 18.7999 43.32C20.7599 37.72 26.0799 34 31.9999 34C37.9199 34 43.2399 37.76 45.1999 43.32C45.3081 43.622 45.3423 43.9455 45.2995 44.2634C45.2567 44.5813 45.1382 44.8843 44.954 45.1469C44.7698 45.4095 44.5252 45.624 44.2409 45.7725C43.9565 45.9209 43.6407 45.999 43.3199 46Z" fill="black"/>
<path d="M43.88 21.0347L41.7377 23.8456C41.6266 23.9588 41.6266 24.0772 41.7377 24.2008L43.8562 26.9807C44.0466 27.2175 44.0307 27.444 43.8086 27.6602C43.6023 27.8867 43.3008 28 42.904 28H42.1661C41.7218 28 41.3965 27.8713 41.1902 27.6139L40.1428 26.2394C40.127 26.2085 40.0793 26.1931 40 26.1931C39.9365 26.1931 39.8889 26.2085 39.8572 26.2394L38.8336 27.6139C38.6273 27.8713 38.2941 28 37.8339 28H37.096C36.6992 28 36.3977 27.8867 36.1914 27.6602C35.9851 27.444 35.9693 27.2175 36.1438 26.9807L38.2861 24.2008C38.3655 24.0772 38.3655 23.9537 38.2861 23.8301L36.12 21.0347C35.9455 20.7979 35.9613 20.5663 36.1676 20.3398C36.3898 20.1133 36.6992 20 37.096 20H37.8339C38.056 20 38.2465 20.0412 38.4052 20.1236C38.5797 20.1956 38.7146 20.2883 38.8098 20.4015L39.8572 21.7915C39.8889 21.8224 39.9365 21.8378 40 21.8378C40.0793 21.8378 40.127 21.8224 40.1428 21.7915L41.214 20.4015C41.3092 20.2883 41.4362 20.1956 41.5948 20.1236C41.7694 20.0412 41.9598 20 42.1661 20H42.904C43.2849 20 43.5943 20.1133 43.8324 20.3398C44.0387 20.5663 44.0546 20.7979 43.88 21.0347Z" fill="black"/>
<path d="M27.88 21.0347L25.7377 23.8456C25.6266 23.9588 25.6266 24.0772 25.7377 24.2008L27.8562 26.9807C28.0466 27.2175 28.0307 27.444 27.8086 27.6602C27.6023 27.8867 27.3008 28 26.904 28H26.1661C25.7218 28 25.3965 27.8713 25.1902 27.6139L24.1428 26.2394C24.127 26.2085 24.0793 26.1931 24 26.1931C23.9365 26.1931 23.8889 26.2085 23.8572 26.2394L22.8336 27.6139C22.6273 27.8713 22.2941 28 21.8339 28H21.096C20.6992 28 20.3977 27.8867 20.1914 27.6602C19.9851 27.444 19.9693 27.2175 20.1438 26.9807L22.2861 24.2008C22.3655 24.0772 22.3655 23.9537 22.2861 23.8301L20.12 21.0347C19.9455 20.7979 19.9613 20.5663 20.1676 20.3398C20.3898 20.1133 20.6992 20 21.096 20H21.8339C22.056 20 22.2465 20.0412 22.4052 20.1236C22.5797 20.1956 22.7146 20.2883 22.8098 20.4015L23.8572 21.7915C23.8889 21.8224 23.9365 21.8378 24 21.8378C24.0793 21.8378 24.127 21.8224 24.1428 21.7915L25.214 20.4015C25.3092 20.2883 25.4362 20.1956 25.5948 20.1236C25.7694 20.0412 25.9598 20 26.1661 20H26.904C27.2849 20 27.5943 20.1133 27.8324 20.3398C28.0387 20.5663 28.0546 20.7979 27.88 21.0347Z" fill="black"/>
</svg>
