<svg width="20" height="21" viewBox="0 0 20 21" fill="none" xmlns="http://www.w3.org/2000/svg">
<g id="icn search .icn-xs">
<path id="vector" fill-rule="evenodd" clip-rule="evenodd" d="M13.4591 12.652L17.7629 16.9558C17.9142 17.1072 17.9991 17.3125 17.999 17.5265C17.9989 17.7405 17.9139 17.9457 17.7625 18.097C17.6111 18.2482 17.4058 18.3332 17.1918 18.3331C16.9778 18.333 16.7726 18.2479 16.6213 18.0966L12.3175 13.7928C11.031 14.7893 9.4131 15.2582 7.79305 15.1042C6.17301 14.9502 4.67248 14.1848 3.59673 12.9637C2.52098 11.7426 1.95081 10.1576 2.00222 8.53104C2.05363 6.9045 2.72275 5.35864 3.87346 4.20793C5.02417 3.05722 6.57003 2.3881 8.19657 2.33669C9.8231 2.28529 11.4081 2.85545 12.6292 3.9312C13.8503 5.00695 14.6157 6.50748 14.7697 8.12752C14.9237 9.74757 14.4548 11.3654 13.4583 12.652H13.4591ZM8.39932 13.5328C9.6723 13.5328 10.8931 13.0271 11.7933 12.1269C12.6934 11.2268 13.1991 10.006 13.1991 8.73299C13.1991 7.46001 12.6934 6.23917 11.7933 5.33904C10.8931 4.43891 9.6723 3.93322 8.39932 3.93322C7.12634 3.93322 5.9055 4.43891 5.00537 5.33904C4.10523 6.23917 3.59954 7.46001 3.59954 8.73299C3.59954 10.006 4.10523 11.2268 5.00537 12.1269C5.9055 13.0271 7.12634 13.5328 8.39932 13.5328Z" fill="#737373"/>
</g>
</svg>
