<svg width="32" height="32" viewBox="0 0 32 32" fill="none" xmlns="http://www.w3.org/2000/svg">
<path d="M9.33301 9.33386H7.99967C7.29243 9.33386 6.61415 9.61481 6.11406 10.1149C5.61396 10.615 5.33301 11.2933 5.33301 12.0005V24.0005C5.33301 24.7078 5.61396 25.3861 6.11406 25.8861C6.61415 26.3862 7.29243 26.6672 7.99967 26.6672H19.9997C20.7069 26.6672 21.3852 26.3862 21.8853 25.8861C22.3854 25.3861 22.6663 24.7078 22.6663 24.0005V22.6672" stroke="#17B472" stroke-width="2" stroke-linecap="round" stroke-linejoin="round"/>
<path d="M21.3333 6.66718L25.3333 10.6672M27.18 8.78051C27.7051 8.25538 28.0001 7.54315 28.0001 6.80051C28.0001 6.05786 27.7051 5.34564 27.18 4.82051C26.6549 4.29538 25.9426 4.00037 25.2 4.00037C24.4574 4.00037 23.7451 4.29538 23.22 4.82051L12 16.0005V20.0005H16L27.18 8.78051Z" stroke="#17B472" stroke-width="2" stroke-linecap="round" stroke-linejoin="round"/>
</svg>
