<svg width="33" height="33" viewBox="0 0 33 33" fill="none" xmlns="http://www.w3.org/2000/svg">
<path fill-rule="evenodd" clip-rule="evenodd" d="M11.856 0.965364C8.75044 1.86504 5.98948 3.67662 3.93382 6.16347C1.87816 8.65032 0.623376 11.6968 0.333374 14.905H7.67703C8.10276 10.0232 9.52397 5.27913 11.8537 0.963079L11.856 0.965364ZM7.67703 17.7619H0.333374C0.62277 20.9702 1.87702 24.017 3.93227 26.5043C5.98753 28.9916 8.74823 30.8037 11.8537 31.7039C9.52397 27.3878 8.10276 22.6438 7.67703 17.7619ZM15.5348 32.3141C12.7506 27.9201 11.0446 22.9348 10.5548 17.7619H22.1096C21.6199 22.9348 19.9139 27.9201 17.1297 32.3141C16.5984 32.3398 16.0661 32.3398 15.5348 32.3141ZM20.813 31.7016C23.9182 30.8015 26.6786 28.9898 28.7339 26.5029C30.7891 24.0161 32.0435 20.9698 32.3334 17.7619H24.9897C24.564 22.6438 23.1428 27.3878 20.813 31.7039V31.7016ZM24.9897 14.905H32.3334C32.044 11.6967 30.7897 8.6499 28.7345 6.16264C26.6792 3.67538 23.9185 1.86328 20.813 0.963079C23.1428 5.27911 24.5641 10.0231 24.9897 14.905ZM15.5348 0.352834C16.0668 0.326887 16.5999 0.326887 17.132 0.352834C19.9154 4.74707 21.6206 9.73234 22.1096 14.905H10.5571C11.0551 9.70077 12.7648 4.7114 15.5348 0.352834Z" fill="#17B472"/>
</svg>
