<svg width="128" height="104" viewBox="0 0 128 104" fill="none" xmlns="http://www.w3.org/2000/svg">
<path d="M100.108 79.8605L99.9753 79.5668H99.6529H44.4105H44.0881L43.955 79.8605L33.2445 103.5H16.8396L63.6021 0.5H80.4613L127.224 103.5H110.819L100.108 79.8605ZM50.6157 64.9911L50.2912 65.6994H51.0703H92.9077H93.6842L93.3629 64.9925L72.5296 19.1571L72.0762 18.1597L71.6198 19.1557L50.6157 64.9911Z" fill="white" stroke="black"/>
<path d="M34.551 64.9937L17.1804 103.5H0.776119L47.5386 0.5H64.3978L111.16 103.5H94.7553L77.2996 64.9929L77.2994 64.9925L56.4661 19.1571L56.0128 18.1597L55.5564 19.1557L34.5523 64.9911L34.551 64.9937Z" fill="#17B472" stroke="black"/>
</svg>
